<mxfile host="app.diagrams.net" agent="Mozilla/5.0 (X11; Linux x86_64) AppleWebKit/537.36 (KHTML, like Gecko) Chrome/133.0.0.0 Safari/537.36" version="26.0.16">
  <diagram name="Page-1" id="GVBYsv24AehNYEL1PtUf">
    <mxGraphModel dx="1509" dy="787" grid="1" gridSize="10" guides="1" tooltips="1" connect="1" arrows="1" fold="1" page="1" pageScale="1" pageWidth="850" pageHeight="1100" math="0" shadow="0">
      <root>
        <mxCell id="0" />
        <mxCell id="1" parent="0" />
        <mxCell id="6GdI-8bJFvZNccGivHPf-25" style="edgeStyle=orthogonalEdgeStyle;rounded=0;orthogonalLoop=1;jettySize=auto;html=1;strokeWidth=2;" edge="1" parent="1" source="6GdI-8bJFvZNccGivHPf-1">
          <mxGeometry relative="1" as="geometry">
            <mxPoint x="90" y="90" as="targetPoint" />
          </mxGeometry>
        </mxCell>
        <mxCell id="6GdI-8bJFvZNccGivHPf-1" value="&lt;font style=&quot;font-size: 28px;&quot;&gt;User Interface (Frontend)&lt;/font&gt;" style="rounded=0;whiteSpace=wrap;html=1;" vertex="1" parent="1">
          <mxGeometry x="200" y="40" width="420" height="100" as="geometry" />
        </mxCell>
        <mxCell id="6GdI-8bJFvZNccGivHPf-4" value="&lt;font style=&quot;font-size: 28px;&quot;&gt;API Middleware Layer&lt;/font&gt;" style="rounded=0;whiteSpace=wrap;html=1;" vertex="1" parent="1">
          <mxGeometry x="200" y="310" width="420" height="100" as="geometry" />
        </mxCell>
        <mxCell id="6GdI-8bJFvZNccGivHPf-16" value="&lt;font style=&quot;font-size: 28px;&quot;&gt;Backend server&lt;/font&gt;" style="rounded=0;whiteSpace=wrap;html=1;" vertex="1" parent="1">
          <mxGeometry x="200" y="580" width="420" height="100" as="geometry" />
        </mxCell>
        <mxCell id="6GdI-8bJFvZNccGivHPf-17" style="edgeStyle=orthogonalEdgeStyle;rounded=0;orthogonalLoop=1;jettySize=auto;html=1;exitX=0.797;exitY=0.993;exitDx=0;exitDy=0;entryX=0.798;entryY=-0.02;entryDx=0;entryDy=0;entryPerimeter=0;exitPerimeter=0;strokeWidth=2;" edge="1" parent="1">
          <mxGeometry relative="1" as="geometry">
            <mxPoint x="549" y="579" as="sourcePoint" />
            <mxPoint x="549" y="410" as="targetPoint" />
          </mxGeometry>
        </mxCell>
        <mxCell id="6GdI-8bJFvZNccGivHPf-18" value="&lt;span style=&quot;background-color: rgb(251, 251, 251);&quot;&gt;&lt;font style=&quot;font-size: 16px;&quot;&gt;&lt;i style=&quot;&quot;&gt;get_recommendation&lt;/i&gt;&lt;/font&gt;&lt;/span&gt;" style="edgeLabel;html=1;align=center;verticalAlign=middle;resizable=0;points=[];" vertex="1" connectable="0" parent="6GdI-8bJFvZNccGivHPf-17">
          <mxGeometry x="-0.1222" relative="1" as="geometry">
            <mxPoint as="offset" />
          </mxGeometry>
        </mxCell>
        <mxCell id="6GdI-8bJFvZNccGivHPf-19" style="edgeStyle=orthogonalEdgeStyle;rounded=0;orthogonalLoop=1;jettySize=auto;html=1;exitX=0.797;exitY=0.993;exitDx=0;exitDy=0;entryX=0.798;entryY=-0.02;entryDx=0;entryDy=0;entryPerimeter=0;exitPerimeter=0;strokeWidth=2;" edge="1" parent="1">
          <mxGeometry relative="1" as="geometry">
            <mxPoint x="250" y="580" as="sourcePoint" />
            <mxPoint x="250" y="411" as="targetPoint" />
          </mxGeometry>
        </mxCell>
        <mxCell id="6GdI-8bJFvZNccGivHPf-20" value="&lt;span style=&quot;background-color: rgb(251, 251, 251);&quot;&gt;&lt;font style=&quot;font-size: 16px;&quot;&gt;&lt;i style=&quot;&quot;&gt;all_location_densities&amp;nbsp;&lt;br&gt;for initialisation&lt;/i&gt;&lt;/font&gt;&lt;/span&gt;" style="edgeLabel;html=1;align=center;verticalAlign=middle;resizable=0;points=[];" vertex="1" connectable="0" parent="6GdI-8bJFvZNccGivHPf-19">
          <mxGeometry x="-0.1222" relative="1" as="geometry">
            <mxPoint as="offset" />
          </mxGeometry>
        </mxCell>
        <mxCell id="6GdI-8bJFvZNccGivHPf-21" value="&lt;font style=&quot;font-size: 15px;&quot;&gt;Geotagged&lt;/font&gt;&lt;div&gt;&lt;font style=&quot;font-size: 15px;&quot;&gt;Images&lt;/font&gt;&lt;/div&gt;" style="shape=cylinder3;whiteSpace=wrap;html=1;boundedLbl=1;backgroundOutline=1;size=15;" vertex="1" parent="1">
          <mxGeometry x="50" y="440" width="90" height="140" as="geometry" />
        </mxCell>
        <mxCell id="6GdI-8bJFvZNccGivHPf-22" style="edgeStyle=orthogonalEdgeStyle;rounded=0;orthogonalLoop=1;jettySize=auto;html=1;entryX=0.5;entryY=1;entryDx=0;entryDy=0;entryPerimeter=0;strokeWidth=2;" edge="1" parent="1" source="6GdI-8bJFvZNccGivHPf-16" target="6GdI-8bJFvZNccGivHPf-21">
          <mxGeometry relative="1" as="geometry" />
        </mxCell>
        <mxCell id="6GdI-8bJFvZNccGivHPf-23" value="" style="points=[];aspect=fixed;html=1;align=center;shadow=0;fillColor=light-dark(#000000, #1a1a1a);strokeColor=#666666;shape=mxgraph.alibaba_cloud.uis_ultimate_internet_service;gradientColor=light-dark(#000000, #535353);strokeWidth=1;fillStyle=cross-hatch;" vertex="1" parent="1">
          <mxGeometry x="32.55" y="50" width="54.900000000000006" height="54" as="geometry" />
        </mxCell>
        <mxCell id="6GdI-8bJFvZNccGivHPf-24" value="&lt;font style=&quot;font-size: 15px;&quot;&gt;MapBox API&lt;/font&gt;" style="text;html=1;align=center;verticalAlign=middle;resizable=0;points=[];autosize=1;strokeColor=none;fillColor=none;" vertex="1" parent="1">
          <mxGeometry x="10" y="100" width="100" height="30" as="geometry" />
        </mxCell>
        <mxCell id="6GdI-8bJFvZNccGivHPf-27" value="" style="endArrow=classic;startArrow=classic;html=1;rounded=0;exitX=0.191;exitY=-0.022;exitDx=0;exitDy=0;exitPerimeter=0;strokeWidth=2;entryX=0.192;entryY=1.004;entryDx=0;entryDy=0;entryPerimeter=0;" edge="1" parent="1">
          <mxGeometry width="50" height="50" relative="1" as="geometry">
            <mxPoint x="280.22" y="309.99999999999994" as="sourcePoint" />
            <mxPoint x="280.6399999999999" y="142.60000000000002" as="targetPoint" />
          </mxGeometry>
        </mxCell>
        <mxCell id="6GdI-8bJFvZNccGivHPf-32" value="&lt;i style=&quot;background-color: rgb(251, 251, 251);&quot;&gt;&lt;font style=&quot;font-size: 16px;&quot;&gt;all_location_densities&lt;/font&gt;&lt;/i&gt;" style="edgeLabel;html=1;align=center;verticalAlign=middle;resizable=0;points=[];" vertex="1" connectable="0" parent="6GdI-8bJFvZNccGivHPf-27">
          <mxGeometry x="0.0245" relative="1" as="geometry">
            <mxPoint as="offset" />
          </mxGeometry>
        </mxCell>
        <mxCell id="6GdI-8bJFvZNccGivHPf-33" value="" style="endArrow=classic;startArrow=classic;html=1;rounded=0;exitX=0.2;exitY=-0.013;exitDx=0;exitDy=0;exitPerimeter=0;strokeWidth=2;" edge="1" parent="1">
          <mxGeometry width="50" height="50" relative="1" as="geometry">
            <mxPoint x="560" y="309" as="sourcePoint" />
            <mxPoint x="560" y="140" as="targetPoint" />
          </mxGeometry>
        </mxCell>
        <mxCell id="6GdI-8bJFvZNccGivHPf-34" value="&lt;i style=&quot;background-color: rgb(251, 251, 251);&quot;&gt;&lt;font style=&quot;font-size: 16px;&quot;&gt;get_recommendation&lt;/font&gt;&lt;/i&gt;" style="edgeLabel;html=1;align=center;verticalAlign=middle;resizable=0;points=[];" vertex="1" connectable="0" parent="6GdI-8bJFvZNccGivHPf-33">
          <mxGeometry x="0.0245" relative="1" as="geometry">
            <mxPoint as="offset" />
          </mxGeometry>
        </mxCell>
        <mxCell id="6GdI-8bJFvZNccGivHPf-35" value="&lt;font style=&quot;font-size: 16px;&quot;&gt;&lt;u style=&quot;&quot;&gt;Params Validation&lt;/u&gt;&lt;/font&gt;" style="text;html=1;align=center;verticalAlign=middle;resizable=0;points=[];autosize=1;strokeColor=none;fillColor=none;" vertex="1" parent="1">
          <mxGeometry x="635" y="345" width="140" height="30" as="geometry" />
        </mxCell>
        <mxCell id="6GdI-8bJFvZNccGivHPf-36" value="&lt;font style=&quot;font-size: 16px;&quot;&gt;&lt;u style=&quot;&quot;&gt;API Calls&lt;/u&gt;&lt;/font&gt;" style="text;html=1;align=center;verticalAlign=middle;resizable=0;points=[];autosize=1;strokeColor=none;fillColor=none;" vertex="1" parent="1">
          <mxGeometry x="670" y="210" width="90" height="30" as="geometry" />
        </mxCell>
      </root>
    </mxGraphModel>
  </diagram>
</mxfile>
